<?xml version="1.0" encoding="UTF-8" standalone="no"?>
<svg
   xmlns:dc="http://purl.org/dc/elements/1.1/"
   xmlns:cc="http://creativecommons.org/ns#"
   xmlns:rdf="http://www.w3.org/1999/02/22-rdf-syntax-ns#"
   xmlns:svg="http://www.w3.org/2000/svg"
   xmlns="http://www.w3.org/2000/svg"
   xmlns:xlink="http://www.w3.org/1999/xlink"
   xmlns:sodipodi="http://sodipodi.sourceforge.net/DTD/sodipodi-0.dtd"
   xmlns:inkscape="http://www.inkscape.org/namespaces/inkscape"
   version="1"
   viewBox="0 0 48 48"
   enable-background="new 0 0 48 48"
   id="svg4"
   sodipodi:docname="add_grid.svg"
   inkscape:version="0.92.5 (2060ec1f9f, 2020-04-08)">
  <metadata
     id="metadata10">
    <rdf:RDF>
      <cc:Work
         rdf:about="">
        <dc:format>image/svg+xml</dc:format>
        <dc:type
           rdf:resource="http://purl.org/dc/dcmitype/StillImage" />
      </cc:Work>
    </rdf:RDF>
  </metadata>
  <defs
     id="defs8">
    <clipPath
       clipPathUnits="userSpaceOnUse"
       id="clipPath842">
      <use
         x="0"
         y="0"
         xlink:href="#g838"
         id="use844"
         width="100%"
         height="100%" />
    </clipPath>
  </defs>
  <sodipodi:namedview
     pagecolor="#ffffff"
     bordercolor="#666666"
     borderopacity="1"
     objecttolerance="10"
     gridtolerance="10"
     guidetolerance="10"
     inkscape:pageopacity="0"
     inkscape:pageshadow="2"
     inkscape:window-width="1920"
     inkscape:window-height="1032"
     id="namedview6"
     showgrid="false"
     inkscape:zoom="6.9532167"
     inkscape:cx="24.297858"
     inkscape:cy="24.714858"
     inkscape:window-x="0"
     inkscape:window-y="0"
     inkscape:window-maximized="1"
     inkscape:current-layer="svg4" />
  <path
     fill="#90CAF9"
     d="M7,7v34h34V7H7z M39,15h-6V9h6V15z M25,15V9h6v6H25z M31,17v6h-6v-6H31z M23,15h-6V9h6V15z M23,17v6h-6v-6 H23z M15,23H9v-6h6V23z M15,25v6H9v-6H15z M17,25h6v6h-6V25z M23,33v6h-6v-6H23z M25,33h6v6h-6V33z M25,31v-6h6v6H25z M33,25h6v6h-6 V25z M33,23v-6h6v6H33z M15,9v6H9V9H15z M9,33h6v6H9V33z M33,39v-6h6v6H33z"
     id="path2" />
  <g
     id="g840"
     clip-path="url(#clipPath842)">
    <g
       inkscape:label="Clip"
       id="g838">
      <circle
         style="fill:#43a047"
         id="circle10"
         r="10"
         cy="38"
         cx="38" />
      <g
         style="fill:#ffffff"
         id="g16">
        <rect
           id="rect12"
           height="12"
           width="4"
           y="32"
           x="36" />
        <rect
           id="rect14"
           height="4"
           width="12"
           y="36"
           x="32" />
      </g>
    </g>
  </g>
</svg>
