<?xml version="1.0" encoding="UTF-8" standalone="no"?>
<svg
   xmlns:dc="http://purl.org/dc/elements/1.1/"
   xmlns:cc="http://creativecommons.org/ns#"
   xmlns:rdf="http://www.w3.org/1999/02/22-rdf-syntax-ns#"
   xmlns:svg="http://www.w3.org/2000/svg"
   xmlns="http://www.w3.org/2000/svg"
   xmlns:sodipodi="http://sodipodi.sourceforge.net/DTD/sodipodi-0.dtd"
   xmlns:inkscape="http://www.inkscape.org/namespaces/inkscape"
   version="1"
   viewBox="0 0 48 48"
   enable-background="new 0 0 48 48"
   id="svg24"
   sodipodi:docname="clipboard.svg"
   inkscape:version="0.92.5 (2060ec1f9f, 2020-04-08)">
  <metadata
     id="metadata30">
    <rdf:RDF>
      <cc:Work
         rdf:about="">
        <dc:format>image/svg+xml</dc:format>
        <dc:type
           rdf:resource="http://purl.org/dc/dcmitype/StillImage" />
      </cc:Work>
    </rdf:RDF>
  </metadata>
  <defs
     id="defs28" />
  <sodipodi:namedview
     pagecolor="#ffffff"
     bordercolor="#666666"
     borderopacity="1"
     objecttolerance="10"
     gridtolerance="10"
     guidetolerance="10"
     inkscape:pageopacity="0"
     inkscape:pageshadow="2"
     inkscape:window-width="1920"
     inkscape:window-height="1032"
     id="namedview26"
     showgrid="false"
     inkscape:zoom="4.9166667"
     inkscape:cx="0.24604825"
     inkscape:cy="22.179962"
     inkscape:window-x="0"
     inkscape:window-y="0"
     inkscape:window-maximized="1"
     inkscape:current-layer="svg24" />
  <path
     fill="#455A64"
     d="M36,4H26c0,1.1-0.9,2-2,2s-2-0.9-2-2H12C9.8,4,8,5.8,8,8v32c0,2.2,1.8,4,4,4h24c2.2,0,4-1.8,4-4V8 C40,5.8,38.2,4,36,4z"
     id="path2" />
  <path
     fill="#fff"
     d="M36,41H12c-0.6,0-1-0.4-1-1V8c0-0.6,0.4-1,1-1h24c0.6,0,1,0.4,1,1v32C37,40.6,36.6,41,36,41z"
     id="path4" />
  <g
     fill="#90A4AE"
     id="g10">
    <path
       d="M26,4c0,1.1-0.9,2-2,2s-2-0.9-2-2h-7v4c0,1.1,0.9,2,2,2h14c1.1,0,2-0.9,2-2V4H26z"
       id="path6" />
    <path
       d="M24,0c-2.2,0-4,1.8-4,4s1.8,4,4,4s4-1.8,4-4S26.2,0,24,0z M24,6c-1.1,0-2-0.9-2-2s0.9-2,2-2s2,0.9,2,2 S25.1,6,24,6z"
       id="path8" />
  </g>
  <path
     inkscape:connector-curvature="0"
     style="fill:#f57c00;stroke-width:0.46017897"
     d="M 31.2,33 H 16.8 C 15.81,33 15,32.152941 15,31.117647 V 18.882353 C 15,17.847059 15.81,17 16.8,17 h 14.4 c 0.99,0 1.8,0.847059 1.8,1.882353 V 31.117647 C 33,32.152941 32.19,33 31.2,33 Z"
     id="path2-3" />
  <ellipse
     style="fill:#fff9c4;stroke-width:0.46017897"
     cx="28.950001"
     cy="21.235296"
     id="circle4"
     rx="1.35"
     ry="1.4117647" />
  <polygon
     transform="matrix(0.45,0,0,0.47058823,13.2,13.705883)"
     style="fill:#942a09"
     points="9,32 31,32 20,16 "
     id="polygon6" />
  <polygon
     transform="matrix(0.45,0,0,0.47058823,13.2,13.705883)"
     style="fill:#bf360c"
     points="23,32 39,32 31,22 "
     id="polygon8" />
</svg>
