<?xml version="1.0" encoding="UTF-8" standalone="no"?>
<svg
   xmlns:dc="http://purl.org/dc/elements/1.1/"
   xmlns:cc="http://creativecommons.org/ns#"
   xmlns:rdf="http://www.w3.org/1999/02/22-rdf-syntax-ns#"
   xmlns:svg="http://www.w3.org/2000/svg"
   xmlns="http://www.w3.org/2000/svg"
   xmlns:sodipodi="http://sodipodi.sourceforge.net/DTD/sodipodi-0.dtd"
   xmlns:inkscape="http://www.inkscape.org/namespaces/inkscape"
   version="1"
   viewBox="0 0 48 48"
   enable-background="new 0 0 48 48"
   id="svg12"
   sodipodi:docname="reload_template.svg"
   inkscape:version="0.92.5 (2060ec1f9f, 2020-04-08)">
  <metadata
     id="metadata18">
    <rdf:RDF>
      <cc:Work
         rdf:about="">
        <dc:format>image/svg+xml</dc:format>
        <dc:type
           rdf:resource="http://purl.org/dc/dcmitype/StillImage" />
      </cc:Work>
    </rdf:RDF>
  </metadata>
  <defs
     id="defs16" />
  <sodipodi:namedview
     pagecolor="#ffffff"
     bordercolor="#666666"
     borderopacity="1"
     objecttolerance="10"
     gridtolerance="10"
     guidetolerance="10"
     inkscape:pageopacity="0"
     inkscape:pageshadow="2"
     inkscape:window-width="1920"
     inkscape:window-height="1032"
     id="namedview14"
     showgrid="false"
     inkscape:zoom="2.4583333"
     inkscape:cx="48.051117"
     inkscape:cy="-53.239999"
     inkscape:window-x="0"
     inkscape:window-y="0"
     inkscape:window-maximized="1"
     inkscape:current-layer="svg12" />
  <rect
     x="4"
     y="7"
     fill="#BBDEFB"
     width="40"
     height="34"
     id="rect2" />
  <rect
     x="9"
     y="12"
     fill="#3F51B5"
     width="30"
     height="5"
     id="rect4" />
  <g
     fill="#2196F3"
     id="g10"
     style="fill:#ffffff;fill-opacity:1">
    <rect
       x="9"
       y="21"
       width="13"
       height="16"
       id="rect6"
       style="fill:#ffffff;fill-opacity:1" />
    <rect
       x="26"
       y="21"
       width="13"
       height="16"
       id="rect8"
       style="fill:#ffffff;fill-opacity:1" />
  </g>
  <g
     transform="matrix(0.52631579,0,0,0.52770449,25.368421,25.361478)"
     style="fill:#9c27b0"
     id="g18">
    <polygon
       points="33.1,19.4 31,8 42.9,9.6 "
       id="polygon2" />
    <polygon
       points="14.9,28.6 17,40 5.1,38.4 "
       id="polygon4" />
    <polygon
       points="19.4,14.9 8,17 9.6,5.1 "
       id="polygon6" />
    <path
       inkscape:connector-curvature="0"
       d="M 9.3,21.2 5.1,22 C 5,22.7 5,23.3 5,24 c 0,4.6 1.6,9 4.6,12.4 l 3,-2.6 C 10.3,31.1 9,27.6 9,24 9,23.1 9.1,22.1 9.3,21.2 Z"
       id="path8" />
    <path
       inkscape:connector-curvature="0"
       d="M 24,5 C 18.6,5 13.8,7.3 10.3,10.9 l 2.8,2.8 C 15.9,10.8 19.7,9 24,9 c 0.9,0 1.9,0.1 2.8,0.3 L 27.5,5.4 C 26.4,5.1 25.2,5 24,5 Z"
       id="path10" />
    <path
       inkscape:connector-curvature="0"
       d="M 38.7,26.8 42.9,26 C 43,25.3 43,24.7 43,24 43,19.6 41.5,15.3 38.7,11.9 l -3.1,2.5 c 2.2,2.7 3.4,6.1 3.4,9.5 0,1 -0.1,2 -0.3,2.9 z"
       id="path12" />
    <path
       inkscape:connector-curvature="0"
       d="M 34.9,34.3 C 32.1,37.2 28.3,39 24,39 23.1,39 22.1,38.9 21.2,38.7 l -0.7,3.9 c 1.2,0.2 2.4,0.3 3.5,0.3 5.4,0 10.2,-2.3 13.7,-5.9 z"
       id="path14" />
    <polygon
       points="28.6,33.1 40,31 38.4,42.9 "
       id="polygon16" />
  </g>
</svg>
