<?xml version="1.0" encoding="UTF-8" standalone="no"?>
<svg
   xmlns:dc="http://purl.org/dc/elements/1.1/"
   xmlns:cc="http://creativecommons.org/ns#"
   xmlns:rdf="http://www.w3.org/1999/02/22-rdf-syntax-ns#"
   xmlns:svg="http://www.w3.org/2000/svg"
   xmlns="http://www.w3.org/2000/svg"
   xmlns:sodipodi="http://sodipodi.sourceforge.net/DTD/sodipodi-0.dtd"
   xmlns:inkscape="http://www.inkscape.org/namespaces/inkscape"
   version="1"
   viewBox="0 0 48 48"
   enable-background="new 0 0 48 48"
   id="svg12"
   sodipodi:docname="template.svg"
   inkscape:version="0.92.5 (2060ec1f9f, 2020-04-08)">
  <metadata
     id="metadata18">
    <rdf:RDF>
      <cc:Work
         rdf:about="">
        <dc:format>image/svg+xml</dc:format>
        <dc:type
           rdf:resource="http://purl.org/dc/dcmitype/StillImage" />
      </cc:Work>
    </rdf:RDF>
  </metadata>
  <defs
     id="defs16" />
  <sodipodi:namedview
     pagecolor="#ffffff"
     bordercolor="#666666"
     borderopacity="1"
     objecttolerance="10"
     gridtolerance="10"
     guidetolerance="10"
     inkscape:pageopacity="0"
     inkscape:pageshadow="2"
     inkscape:window-width="1920"
     inkscape:window-height="1032"
     id="namedview14"
     showgrid="false"
     inkscape:zoom="9.8333333"
     inkscape:cx="5.0556348"
     inkscape:cy="31.110338"
     inkscape:window-x="0"
     inkscape:window-y="0"
     inkscape:window-maximized="1"
     inkscape:current-layer="svg12" />
  <rect
     x="4"
     y="7"
     fill="#BBDEFB"
     width="40"
     height="34"
     id="rect2" />
  <rect
     x="9"
     y="12"
     fill="#3F51B5"
     width="30"
     height="5"
     id="rect4" />
  <g
     fill="#2196F3"
     id="g10"
     style="fill:#ffffff;fill-opacity:1">
    <rect
       x="9"
       y="21"
       width="13"
       height="16"
       id="rect6"
       style="fill:#ffffff;fill-opacity:1" />
    <rect
       x="26"
       y="21"
       width="13"
       height="16"
       id="rect8"
       style="fill:#ffffff;fill-opacity:1" />
  </g>
  <g
     transform="matrix(1.1111111,0,0,1.1111096,24.666667,-1117.9984)"
     id="g22">
    <path
       style="fill:#3498db"
       inkscape:connector-curvature="0"
       d="m 5,1031.4 c -1.1046,0 -2,0.9 -2,2 v 14 c 0,1.1 0.8954,2 2,2 h 13 1 c 1.105,0 2,-0.9 2,-2 v -13 l -3,-3 z"
       id="path2" />
    <path
       style="fill:#2980b9"
       inkscape:connector-curvature="0"
       d="m 7,1031.4 v 1 5 c 0,0.5 0.4477,1 1,1 h 8 c 0.552,0 1,-0.5 1,-1 v -5 -1 z"
       id="path4" />
    <path
       style="fill:#ecf0f1"
       inkscape:connector-curvature="0"
       d="m 7,3 v 5 c 0,0.5523 0.4477,1 1,1 h 8 c 0.552,0 1,-0.4477 1,-1 V 3 Z"
       transform="translate(0,1028.4)"
       id="path6" />
    <path
       style="fill:#ecf0f1"
       inkscape:connector-curvature="0"
       d="m 6,1040.4 c -0.5523,0 -1,0.4 -1,1 v 3 2 3 h 4 6 4 v -3 -2 -3 c 0,-0.6 -0.448,-1 -1,-1 h -4 -4 z"
       id="path8" />
    <g
       style="fill:#bdc3c7"
       id="g16">
      <rect
         height="1"
         width="14"
         y="1048.4"
         x="5"
         id="rect10" />
      <rect
         height="1"
         width="10"
         y="1042.4"
         x="7"
         id="rect12" />
      <rect
         height="1"
         width="10"
         y="1044.4"
         x="7"
         id="rect14" />
    </g>
    <rect
       style="fill:#3498db"
       height="4"
       width="3"
       y="1032.4"
       x="13"
       id="rect18" />
    <rect
       style="fill:#2980b9"
       height="0.99997997"
       width="3"
       y="1032.4"
       x="13"
       id="rect20" />
  </g>
</svg>
